<svg width="255" height="152" viewBox="0 0 255 152" fill="none" xmlns="http://www.w3.org/2000/svg">
<path d="M77.4102 71.8606C77.0197 71.917 76.6215 71.8871 76.2438 71.7729C75.866 71.6588 75.5179 71.4633 75.2239 71.2002C74.9298 70.937 74.697 70.6126 74.5419 70.2498C74.3867 69.887 74.3129 69.4946 74.3258 69.1002L65.3712 65.659L69.4257 62.7588L77.3074 66.4712C77.9687 66.5368 78.5829 66.8427 79.0337 67.331C79.4845 67.8193 79.7404 68.456 79.7531 69.1204C79.7657 69.7848 79.5342 70.4308 79.1023 70.9358C78.6704 71.4409 78.0683 71.77 77.41 71.8607L77.4102 71.8606Z" fill="#FFB7B7"/>
<path d="M58.8769 80.657L38.6085 77.8159L40.3923 65.3789H55.3141L58.8769 80.657Z" fill="#FFB6B6"/>
<path d="M24.4376 141.556L28.5954 142.522L34.3007 126.945L28.1643 125.52L24.4376 141.556Z" fill="#FFB6B6"/>
<path d="M20.5693 148.25L23.5509 148.943L24.7373 146.252L25.4462 149.384L33.3542 151.221C33.7332 151.309 34.1305 151.274 34.488 151.12C34.8456 150.967 35.1446 150.703 35.3415 150.367C35.5384 150.031 35.6229 149.641 35.5825 149.254C35.5422 148.867 35.3792 148.503 35.1173 148.215L29.8158 142.387L30.4771 139.541L23.7426 138.394L20.5693 148.25Z" fill="#6E66F9"/>
<path d="M50.0918 143.873H54.3604L56.3915 127.409H50.0918V143.873Z" fill="#FFB6B6"/>
<path d="M47.8389 151.269H50.8999L51.4463 148.379L52.8457 151.269H60.9644C61.3535 151.269 61.7325 151.145 62.046 150.914C62.3594 150.684 62.591 150.359 62.7068 149.987C62.8226 149.616 62.8166 149.217 62.6897 148.849C62.5628 148.481 62.3216 148.163 62.0014 147.942L55.5181 143.465V140.543L48.6987 140.95L47.8389 151.269Z" fill="#6E66F9"/>
<path d="M38.3522 75.7056L58.1738 74.1289C64.0229 87.7923 60.3037 109.604 55.8087 134.158L49.4332 134.983L48.9387 95.5272L32.9565 132.233L26.3118 131.893L38.3522 75.7056Z" fill="#6E66F9"/>
<path d="M49.89 39.7259V33.02C49.89 30.6368 48.9433 28.3512 47.2581 26.6661C45.573 24.9809 43.2874 24.0342 40.9042 24.0342C38.521 24.0342 36.2355 24.9809 34.5503 26.6661C32.8651 28.3512 31.9184 30.6368 31.9184 33.02C30.3347 36.3202 31.3255 37.8893 31.9184 39.7259C31.919 40.0457 32.0462 40.3523 32.2724 40.5784C32.4985 40.8046 32.8051 40.9318 33.1249 40.9324H48.6829C49.0028 40.932 49.3095 40.8048 49.5358 40.5786C49.7621 40.3525 49.8895 40.0458 49.89 39.7259Z" fill="#2F2E41"/>
<path d="M43.1218 40.8315C46.7604 40.8315 49.71 37.8819 49.71 34.2434C49.71 30.6049 46.7604 27.6553 43.1218 27.6553C39.4833 27.6553 36.5337 30.6049 36.5337 34.2434C36.5337 37.8819 39.4833 40.8315 43.1218 40.8315Z" fill="#FFB7B7"/>
<path d="M52.0158 33.5563C52.0137 31.6718 51.2641 29.8651 49.9315 28.5325C48.599 27.1999 46.7922 26.4504 44.9077 26.4482H43.5665C41.6819 26.4504 39.8752 27.1999 38.5426 28.5325C37.2101 29.8651 36.4605 31.6718 36.4584 33.5563V33.6905C37.4629 34.3772 38.4165 34.4776 39.2928 33.6905L40.2595 30.9836L40.4528 33.6905H41.9178L42.4062 32.3248L42.5039 33.6905C44.4827 35.3757 48.2245 34.5681 52.0158 33.6905V33.5563Z" fill="#2F2E41"/>
<path d="M39.2802 69.0134L56.0541 68.3751L56.9918 57.4016C57.7148 55.393 57.7266 53.6671 57.0265 52.2756C56.4244 51.1319 55.4127 50.2575 54.1938 49.8273L50.5234 45.3942C50.0513 44.8244 49.4584 44.3667 48.7877 44.054C48.1171 43.7413 47.3853 43.5815 46.6453 43.5862L37.1081 43.6514C36.8783 43.5132 35.4839 42.8045 32.734 43.9961C29.7513 45.2888 30.4439 49.7799 30.4513 49.825L30.4582 49.8672L30.491 49.8959L36.8344 55.2391L39.2802 69.0134Z" fill="#9B95FF"/>
<path d="M115.72 49.72C104.896 61.9184 72.3293 64.2451 51.131 86.6364C44.024 64.9932 54.092 27.6327 64.1255 13.3852C68.9438 6.54331 76.2827 1.89571 84.5277 0.464819C92.7727 -0.966073 101.248 0.936954 108.09 5.75525C122.338 15.7888 127.286 36.6857 115.72 49.72Z" fill="#2C664C"/>
<path d="M89.4938 38.0181C95.177 38.0181 99.7841 33.411 99.7841 27.7278C99.7841 22.0446 95.177 17.4375 89.4938 17.4375C83.8106 17.4375 79.2035 22.0446 79.2035 27.7278C79.2035 33.411 83.8106 38.0181 89.4938 38.0181Z" fill="white"/>
<path d="M42.4321 97.8431C46.1544 97.8431 49.172 94.8256 49.172 91.1032C49.172 87.3809 46.1544 84.3633 42.4321 84.3633C38.7097 84.3633 35.6921 87.3809 35.6921 91.1032C35.6921 94.8256 38.7097 97.8431 42.4321 97.8431Z" fill="#2C664C"/>
<path d="M34.7216 90.616C34.4281 90.3523 34.1959 90.0275 34.0415 89.6645C33.887 89.3014 33.814 88.9089 33.8275 88.5145C33.8411 88.1202 33.9409 87.7336 34.1199 87.382C34.299 87.0304 34.5529 86.7223 34.8638 86.4794L31.7662 77.4004L36.5923 78.654L38.7916 87.0829C39.1653 87.6326 39.3243 88.3002 39.2385 88.9593C39.1527 89.6184 38.8281 90.223 38.3261 90.6587C37.8242 91.0943 37.1798 91.3306 36.5152 91.3228C35.8507 91.315 35.2121 91.0636 34.7205 90.6163L34.7216 90.616Z" fill="#FFB7B7"/>
<path d="M33.3379 85.1065L38.0203 83.0198L36.4472 67.182L37.9123 51.2118L31.6605 47.8379L30.3359 49.508V49.546L29.6342 69.7407L29.6379 69.7559L33.3379 85.1065Z" fill="#9B95FF"/>
<path opacity="0.2" d="M98.3968 22.8008C99.6305 24.9098 100.073 27.3891 99.646 29.7949C99.2187 32.2006 97.9493 34.3757 96.0648 35.931C94.1803 37.4862 91.8038 38.3201 89.3607 38.2832C86.9176 38.2464 84.5673 37.3413 82.7306 35.73C83.4825 37.0178 84.5054 38.1268 85.7284 38.9802C86.9514 39.8336 88.3452 40.411 89.8134 40.6723C91.2816 40.9337 92.7891 40.8728 94.2314 40.4939C95.6738 40.115 97.0165 39.4271 98.1667 38.4779C99.3169 37.5286 100.247 36.3407 100.893 34.9965C101.538 33.6522 101.884 32.1836 101.906 30.6925C101.928 29.2014 101.625 27.7233 101.019 26.3607C100.413 24.998 99.5186 23.7834 98.3968 22.8008Z" fill="#231F20"/>
<path opacity="0.2" d="M111.031 8.76465C119.478 19.6868 120.935 35.3839 111.575 45.9325C101.117 57.7182 70.3631 60.2907 49.1753 80.6464C49.528 82.7694 50.0373 84.8633 50.699 86.9111C71.8973 64.5198 104.464 62.1931 115.288 49.9948C125.887 38.05 122.616 19.504 111.031 8.76465Z" fill="#231F20"/>
<path d="M253.741 44.0984C252.515 45.7314 247.135 47.6422 245.589 48.1657C245.543 48.1816 245.493 48.1858 245.444 48.178C245.395 48.1702 245.349 48.1507 245.31 48.1211C245.27 48.0915 245.239 48.0528 245.218 48.0082C245.197 47.9636 245.187 47.9145 245.189 47.8653C245.259 46.2345 245.59 40.5349 246.815 38.9019C247.504 37.9835 248.53 37.3764 249.667 37.2143C250.803 37.0522 251.958 37.3482 252.876 38.0373C253.795 38.7264 254.402 39.7521 254.564 40.8888C254.726 42.0255 254.43 43.18 253.741 44.0984Z" fill="#2C664C"/>
<path d="M86.552 124.098C85.3267 125.731 79.9468 127.642 78.4007 128.166C78.354 128.182 78.3041 128.186 78.2554 128.178C78.2067 128.17 78.1607 128.151 78.1212 128.121C78.0818 128.092 78.0502 128.053 78.0291 128.008C78.008 127.964 77.9981 127.915 78.0003 127.865C78.0707 126.234 78.4011 120.535 79.6264 118.902C80.3155 117.983 81.3412 117.376 82.4779 117.214C83.6146 117.052 84.7691 117.348 85.6875 118.037C86.6059 118.726 87.2129 119.752 87.3751 120.889C87.5372 122.025 87.2411 123.18 86.552 124.098Z" fill="#2C664C"/>
<path d="M250.46 43.4589C251.677 43.4589 252.663 42.4727 252.663 41.2563C252.663 40.0398 251.677 39.0537 250.46 39.0537C249.244 39.0537 248.258 40.0398 248.258 41.2563C248.258 42.4727 249.244 43.4589 250.46 43.4589Z" fill="white"/>
<path d="M243.987 50.8712C244.533 50.8712 244.975 50.4292 244.975 49.8838C244.975 49.3385 244.533 48.8965 243.987 48.8965C243.442 48.8965 243 49.3385 243 49.8838C243 50.4292 243.442 50.8712 243.987 50.8712Z" fill="#2C664C"/>
<path d="M76.9874 131.146C77.5327 131.146 77.9747 130.704 77.9747 130.158C77.9747 129.613 77.5327 129.171 76.9874 129.171C76.4421 129.171 76 129.613 76 130.158C76 130.704 76.4421 131.146 76.9874 131.146Z" fill="#2C664C"/>
<path d="M12.8252 64.1793C14.6282 66.9341 14.5706 76.1406 14.5153 78.7723C14.5137 78.8518 14.4927 78.9297 14.4542 78.9993C14.4156 79.0689 14.3607 79.128 14.2942 79.1716C14.2277 79.2151 14.1515 79.2418 14.0723 79.2492C13.9932 79.2567 13.9134 79.2447 13.8398 79.2144C11.4059 78.212 2.94551 74.5808 1.14247 71.8261C0.639679 71.059 0.292968 70.2003 0.122149 69.2992C-0.0486704 68.3981 -0.0402518 67.4721 0.146926 66.5742C0.334104 65.6763 0.69637 64.8241 1.21303 64.0663C1.72968 63.3085 2.3906 62.6599 3.15802 62.1576C3.92543 61.6553 4.7843 61.3091 5.68555 61.1389C6.5868 60.9687 7.51275 60.9777 8.41052 61.1654C9.30828 61.3532 10.1602 61.716 10.9177 62.2331C11.6752 62.7503 12.3234 63.4116 12.8252 64.1793Z" fill="#2C664C"/>
<path d="M6.71562 71.1458C8.6773 71.1458 10.2675 69.5556 10.2675 67.5939C10.2675 65.6322 8.6773 64.042 6.71562 64.042C4.75395 64.042 3.1637 65.6322 3.1637 67.5939C3.1637 69.5556 4.75395 71.1458 6.71562 71.1458Z" fill="white"/>
<path d="M83 123.171C84.1046 123.171 85 122.275 85 121.171C85 120.066 84.1046 119.171 83 119.171C81.8954 119.171 81 120.066 81 121.171C81 122.275 81.8954 123.171 83 123.171Z" fill="white"/>
<path d="M16.2404 83.7382C17.1198 83.7382 17.8327 83.0253 17.8327 82.146C17.8327 81.2666 17.1198 80.5537 16.2404 80.5537C15.3611 80.5537 14.6482 81.2666 14.6482 82.146C14.6482 83.0253 15.3611 83.7382 16.2404 83.7382Z" fill="#2C664C"/>
<path d="M171.825 101.333C173.628 104.087 173.571 113.294 173.515 115.926C173.514 116.005 173.493 116.083 173.454 116.153C173.416 116.222 173.361 116.281 173.294 116.325C173.228 116.368 173.152 116.395 173.072 116.403C172.993 116.41 172.913 116.398 172.84 116.368C170.406 115.365 161.946 111.734 160.142 108.979C159.64 108.212 159.293 107.354 159.122 106.453C158.951 105.551 158.96 104.625 159.147 103.728C159.334 102.83 159.696 101.977 160.213 101.22C160.73 100.462 161.391 99.8132 162.158 99.3109C162.925 98.8086 163.784 98.4625 164.686 98.2922C165.587 98.122 166.513 98.131 167.411 98.3187C168.308 98.5065 169.16 98.8693 169.918 99.3865C170.675 99.9036 171.323 100.565 171.825 101.333Z" fill="#2C664C"/>
<path d="M165.716 108.299C167.677 108.299 169.268 106.709 169.268 104.747C169.268 102.786 167.677 101.195 165.716 101.195C163.754 101.195 162.164 102.786 162.164 104.747C162.164 106.709 163.754 108.299 165.716 108.299Z" fill="white"/>
<path d="M175.24 120.892C176.12 120.892 176.833 120.179 176.833 119.299C176.833 118.42 176.12 117.707 175.24 117.707C174.361 117.707 173.648 118.42 173.648 119.299C173.648 120.179 174.361 120.892 175.24 120.892Z" fill="#2C664C"/>
<path d="M187.707 70.8491C188.118 71.07 188.572 71.1981 189.038 71.2244C189.504 71.2507 189.97 71.1746 190.403 71.0014C190.836 70.8282 191.226 70.5621 191.545 70.222C191.864 69.8818 192.105 69.4758 192.25 69.0325L203.587 68.8366L200.258 63.9746L190.003 64.9061C189.242 64.7114 188.437 64.8026 187.738 65.1623C187.04 65.522 186.499 66.1253 186.216 66.8579C185.933 67.5904 185.928 68.4013 186.203 69.137C186.478 69.8726 187.013 70.4818 187.707 70.8491Z" fill="#FFB8B8"/>
<path d="M194.513 70.7082C194.337 70.7082 194.163 70.6727 194.002 70.6036C193.84 70.5346 193.694 70.4336 193.573 70.3067C193.451 70.1798 193.357 70.0295 193.295 69.8651C193.233 69.7006 193.205 69.5254 193.213 69.3498L193.442 64.1514C193.454 63.8419 193.577 63.547 193.788 63.3204C194 63.0938 194.285 62.9505 194.593 62.9164L207.726 61.4102L207.286 70.0727L194.577 70.7064C194.556 70.7076 194.534 70.7082 194.513 70.7082Z" fill="#6CE975"/>
<path d="M210.507 141.962L206.81 143.169L200.392 129.481L205.849 127.699L210.507 141.962Z" fill="#FFB8B8"/>
<path d="M212.621 145.238L200.698 149.132L200.649 148.981C200.45 148.372 200.373 147.729 200.422 147.09C200.471 146.451 200.646 145.827 200.936 145.256C201.227 144.684 201.626 144.175 202.113 143.758C202.6 143.341 203.164 143.024 203.774 142.825L211.056 140.446L212.621 145.238Z" fill="#2F2E41"/>
<path d="M221.399 147.686L217.509 147.686L215.658 132.682L221.399 132.682L221.399 147.686Z" fill="#FFB8B8"/>
<path d="M222.391 151.456L209.848 151.456V151.297C209.848 150.656 209.974 150.021 210.22 149.429C210.465 148.836 210.825 148.298 211.278 147.845C211.731 147.392 212.27 147.032 212.862 146.787C213.454 146.541 214.089 146.415 214.73 146.415H214.73L222.391 146.415L222.391 151.456Z" fill="#2F2E41"/>
<path d="M215.491 144.034C215.172 144.033 214.866 143.917 214.628 143.705C214.39 143.494 214.238 143.203 214.2 142.888L209.184 100.959L201.843 112.744L210.457 134.757C210.574 135.061 210.573 135.398 210.455 135.702C210.337 136.006 210.109 136.255 209.817 136.4L202.51 139.975C202.343 140.057 202.161 140.102 201.975 140.107C201.79 140.112 201.605 140.078 201.434 140.006C201.263 139.934 201.109 139.826 200.983 139.69C200.857 139.554 200.762 139.392 200.703 139.216L192.606 114.75C191.995 112.909 191.916 110.933 192.376 109.048L197.612 87.5611L197.673 87.5276L209.476 81.0625L209.543 81.0873L223.443 86.1605L221.988 113.707L223.045 142.297C223.06 142.637 222.94 142.969 222.712 143.221C222.484 143.473 222.165 143.625 221.826 143.644L215.572 144.031C215.545 144.033 215.517 144.034 215.491 144.034Z" fill="#63AB8B"/>
<path d="M207.834 95.727C205.757 95.727 204.008 95.1355 202.913 93.6318L202.878 93.5834L203.586 86.1507L197.286 89.6477C197.155 89.7202 197.006 89.7508 196.857 89.7355C196.709 89.7202 196.568 89.6596 196.455 89.562C196.342 89.4644 196.262 89.3345 196.225 89.1897C196.188 89.0449 196.196 88.8923 196.249 88.7525L204.106 67.8879L209.293 50.8915C209.55 49.5312 210.215 48.281 211.198 47.3067C212.182 46.3324 213.438 45.6797 214.801 45.4353C219.422 44.5864 222.175 46.1458 225.353 49.606C226.121 50.448 226.688 51.4544 227.008 52.5485C227.328 53.6426 227.394 54.7954 227.201 55.919L224.195 73.1036L225.078 88.5114C225.146 88.777 225.127 89.0572 225.026 89.3119C224.925 89.5665 224.746 89.7826 224.514 89.9293C222.057 91.4935 214.522 95.7264 207.834 95.727Z" fill="#6CE975"/>
<path d="M218.348 42.8613C222.652 42.8613 226.141 39.3723 226.141 35.0684C226.141 30.7644 222.652 27.2754 218.348 27.2754C214.044 27.2754 210.555 30.7644 210.555 35.0684C210.555 39.3723 214.044 42.8613 218.348 42.8613Z" fill="#FFB8B8"/>
<path d="M220.378 90.6189C220.802 90.4245 221.178 90.1395 221.48 89.784C221.782 89.4284 222.002 89.011 222.125 88.5611C222.248 88.1112 222.271 87.6398 222.193 87.1801C222.114 86.7203 221.935 86.2834 221.67 85.9002L228.353 76.7411L222.468 76.4619L217.023 85.2023C216.409 85.6916 215.996 86.3892 215.861 87.1629C215.727 87.9367 215.881 88.7328 216.295 89.4005C216.708 90.0681 217.352 90.5609 218.105 90.7855C218.857 91.0101 219.666 90.9508 220.378 90.6189Z" fill="#FFB8B8"/>
<path d="M223.997 85.4508C223.671 85.4972 223.339 85.4183 223.069 85.23L218.644 82.1446C218.378 81.9605 218.191 81.6836 218.119 81.3682C218.047 81.0529 218.095 80.7219 218.255 80.4405L226.132 66.4255L218.209 56.889C217.793 56.3882 217.486 55.8063 217.307 55.1803C217.128 54.5543 217.082 53.8979 217.17 53.2529C217.259 52.6079 217.481 51.9884 217.822 51.4339C218.163 50.8794 218.616 50.402 219.152 50.032C219.687 49.6621 220.294 49.4077 220.934 49.2851C221.573 49.1625 222.231 49.1743 222.866 49.3199C223.5 49.4654 224.098 49.7415 224.62 50.1305C225.142 50.5195 225.577 51.013 225.898 51.5794L234.646 67.0191C234.708 67.1291 234.74 67.2531 234.74 67.3793C234.74 67.5055 234.707 67.6295 234.645 67.7394L224.944 84.8058C224.854 84.963 224.733 85.0998 224.588 85.2076C224.442 85.3154 224.276 85.3917 224.1 85.4318C224.066 85.4398 224.031 85.4459 223.997 85.4508Z" fill="#6CE975"/>
<path d="M215.233 34.074C214.462 33.4983 213.394 33.5881 212.48 33.2864C211.936 33.1067 211.449 32.7871 211.067 32.3597C210.685 31.9323 210.423 31.412 210.306 30.8511C210.189 30.2902 210.221 29.7083 210.4 29.1639C210.578 28.6194 210.897 28.1315 211.324 27.7491C212.311 26.8646 213.715 26.6639 215.031 26.5021C216.833 26.2804 218.652 26.0584 220.459 26.2347C222.266 26.4109 224.085 27.0213 225.406 28.2671C226.863 29.6406 227.58 31.6854 227.584 33.6873C227.534 35.6985 226.982 37.6653 225.978 39.4091C225.668 40.0718 225.201 40.6485 224.616 41.0889C224.009 41.4902 223.152 41.5952 222.567 41.1618C222.061 40.7873 221.875 40.1313 221.647 39.5447C221.418 38.9582 221.028 38.3335 220.405 38.243C219.603 38.1264 218.991 38.9422 218.225 39.2091C217.155 39.5824 215.965 38.7567 215.529 37.7103C215.092 36.6639 215.207 35.48 215.329 34.3527" fill="#2F2E41"/>
</svg>
