<svg width="220" height="141" viewBox="0 0 220 141" fill="none" xmlns="http://www.w3.org/2000/svg">
<path d="M215.816 17.3537H87.2233C85.446 17.3537 84 15.9078 84 14.1304V4.2233C84 2.44598 85.446 1 87.2233 1H215.816C217.593 1 219.039 2.44598 219.039 4.2233V14.1304C219.039 15.9078 217.593 17.3537 215.816 17.3537Z" fill="white" stroke="#BAB7C9" stroke-width="0.797268" stroke-linecap="round" stroke-linejoin="round"/>
<path d="M215.816 64.3928H87.2233C85.446 64.3928 84 62.9468 84 61.1695V51.2624C84 49.485 85.446 48.0391 87.2233 48.0391H215.816C217.593 48.0391 219.039 49.485 219.039 51.2624V61.1695C219.039 62.9468 217.593 64.3928 215.816 64.3928Z" fill="white" stroke="#BAB7C9" stroke-width="0.797268" stroke-linecap="round" stroke-linejoin="round"/>
<path d="M124.927 96.6818H87.2233C85.446 96.6818 84 95.2359 84 93.4586V83.5514C84 81.7741 85.446 80.3281 87.2233 80.3281H124.927C126.705 80.3281 128.151 81.7741 128.151 83.5514V93.4586C128.151 95.2359 126.705 96.6818 124.927 96.6818Z" fill="#2C664C"/>
<path d="M201.3 122.629L196.865 125.464L200.887 131.755L205.322 128.92L201.3 122.629Z" fill="#F1A1A4"/>
<path d="M187.235 38.0633L181.633 39.9765L181.545 31.887L186.643 31.8301L187.235 38.0633Z" fill="#F1A1A4"/>
<path d="M182.199 34.1209C185.293 34.1209 187.801 31.6126 187.801 28.5184C187.801 25.4243 185.293 22.916 182.199 22.916C179.105 22.916 176.596 25.4243 176.596 28.5184C176.596 31.6126 179.105 34.1209 182.199 34.1209Z" fill="#F1A1A4"/>
<path d="M183.732 27.9469C182.796 27.9288 182.168 26.9903 181.793 26.1268C181.418 25.2685 181.033 24.2757 180.162 23.9267C179.448 23.6423 178.217 25.6279 177.649 25.1108C177.057 24.5705 177.597 21.7473 178.215 21.238C178.833 20.7286 179.681 20.6201 180.477 20.5709C182.429 20.4598 184.391 20.5942 186.31 20.9743C187.494 21.2069 188.719 21.5663 189.58 22.4117C190.674 23.4846 190.968 25.1185 191.061 26.6465C191.16 28.2106 191.085 29.8497 190.34 31.2303C189.593 32.6083 188.013 33.6346 186.48 33.3037C186.317 32.4738 186.462 31.6233 186.514 30.7753C186.566 29.9324 186.491 29.0224 185.968 28.3554C185.446 27.6884 184.345 27.435 183.753 28.0374" fill="#2F2E43"/>
<path d="M190.645 29.8105C191.201 29.3942 191.865 29.0426 192.556 29.1202C193.303 29.2003 193.939 29.8105 194.138 30.5344C194.337 31.2582 194.13 32.0597 193.678 32.6595C193.225 33.2593 192.545 33.6574 191.821 33.8617C191.403 33.9806 190.945 34.0297 190.542 33.8617C189.95 33.6135 189.624 32.8663 189.849 32.2639" fill="#2F2E43"/>
<path d="M169.797 82.7382C169.445 84.5816 170.146 86.2569 171.366 86.4766C172.584 86.6964 173.859 85.3779 174.213 83.5345C174.365 82.8003 174.332 82.0402 174.115 81.3189L178.424 52.4252L172.618 51.4014L170.707 80.7087C170.239 81.3085 169.926 82.004 169.797 82.746L169.797 82.7382Z" fill="#F1A1A4"/>
<path d="M181.529 36.2637L177.574 36.3076C174.781 36.7601 174.039 38.2621 173.437 41.0233C172.514 45.2348 171.335 50.8475 171.583 50.9251C171.979 51.0544 178.745 54.1464 182.17 53.3812L181.532 36.2637L181.529 36.2637Z" fill="#6CE975"/>
<path d="M186.387 128.098L181.124 128.157L181.207 135.623L186.471 135.564L186.387 128.098Z" fill="#F1A1A4"/>
<path d="M176.118 140.202C175.562 140.21 175.074 140.202 174.701 140.171C173.3 140.06 171.958 139.042 171.278 138.447C170.973 138.181 170.873 137.746 171.025 137.374C171.134 137.108 171.356 136.904 171.635 136.818L175.319 135.722L181.258 131.619L181.325 131.738C181.351 131.782 181.951 132.834 182.155 133.548C182.233 133.819 182.217 134.044 182.103 134.22C182.026 134.341 181.917 134.414 181.829 134.458C181.938 134.569 182.279 134.797 183.329 134.952C184.854 135.179 185.162 133.592 185.172 133.525L185.182 133.47L185.226 133.439C185.948 132.961 186.39 132.746 186.545 132.79C186.643 132.816 186.801 132.865 187.282 137.167C187.326 137.302 187.641 138.289 187.445 139.241C187.233 140.275 182.721 139.967 181.821 139.897C181.796 139.9 178.424 140.179 176.113 140.202H176.121L176.118 140.202Z" fill="#2F2E43"/>
<path d="M195.552 138.962C194.934 138.97 194.365 138.9 193.959 138.833C193.561 138.766 193.246 138.453 193.179 138.055C193.127 137.768 193.212 137.481 193.401 137.263L195.945 134.383L198.81 127.76L198.931 127.824C198.975 127.848 200.04 128.424 200.593 128.921C200.803 129.109 200.909 129.308 200.909 129.52C200.909 129.665 200.855 129.784 200.8 129.864C200.953 129.9 201.361 129.911 202.333 129.489C203.748 128.874 203.168 127.364 203.143 127.305L203.122 127.253L203.145 127.207C203.505 126.421 203.768 126.002 203.921 125.955C204.019 125.929 204.177 125.88 206.863 129.277C206.971 129.368 207.763 130.037 208.099 130.947C208.463 131.938 204.479 134.063 203.673 134.479C203.649 134.5 199.484 137.594 197.773 138.481C197.093 138.833 196.284 138.949 195.547 138.954L195.555 138.962L195.552 138.962Z" fill="#2F2E43"/>
<path d="M189.559 65.6025L174.823 65.7654L173.639 79.4883L180.053 130.078L187.576 129.993L184.244 100.771L196.741 127.051L203.375 122.294L193.572 97.7382C193.572 97.7382 196.739 76.2179 194.003 70.8973C191.271 65.5766 189.562 65.5947 189.562 65.5947V65.6025L189.559 65.6025Z" fill="#63AB8B"/>
<path d="M196.896 66.3576L173.491 66.6187L180.177 36.2824L190.376 36.166L196.896 66.3576Z" fill="#6CE975"/>
<path d="M199.182 82.4119C199.575 84.25 198.911 85.9383 197.698 86.1839C196.483 86.4321 195.18 85.142 194.79 83.3038C194.621 82.5722 194.637 81.8121 194.836 81.0856L189.883 52.2927L195.663 51.1396L198.225 80.4005C198.706 80.9899 199.035 81.6802 199.182 82.417V82.4119Z" fill="#F1A1A4"/>
<path d="M186.423 36.21L190.379 36.166C193.179 36.559 193.954 38.043 194.621 40.7912C195.637 44.982 196.938 50.5637 196.695 50.6491C196.299 50.7835 189.608 54.0255 186.167 53.3378L186.428 36.21L186.423 36.21Z" fill="#6CE975"/>
<path d="M208.132 29.9552C207.433 30.8876 204.361 31.9785 203.478 32.2775C203.452 32.2865 203.423 32.2889 203.395 32.2845C203.368 32.2801 203.341 32.2689 203.319 32.252C203.296 32.2351 203.278 32.213 203.266 32.1875C203.254 32.1621 203.248 32.1341 203.25 32.1059C203.29 31.1748 203.479 27.9206 204.178 26.9883C204.572 26.4639 205.157 26.1173 205.806 26.0248C206.455 25.9322 207.114 26.1012 207.639 26.4947C208.163 26.8881 208.51 27.4738 208.602 28.1227C208.695 28.7717 208.526 29.4309 208.132 29.9552Z" fill="white"/>
<path d="M61.2468 21.7269C60.0569 23.3126 54.8328 25.1681 53.3315 25.6764C53.2861 25.6918 53.2377 25.6959 53.1904 25.6884C53.1431 25.6809 53.0984 25.6619 53.0601 25.6332C53.0218 25.6044 52.9911 25.5668 52.9706 25.5235C52.9502 25.4802 52.9406 25.4325 52.9427 25.3847C53.011 23.8011 53.3319 18.2666 54.5217 16.6808C55.1908 15.789 56.1869 15.1996 57.2906 15.0421C58.3944 14.8847 59.5155 15.1722 60.4073 15.8413C61.2991 16.5105 61.8885 17.5065 62.046 18.6103C62.2034 19.714 61.9159 20.8351 61.2468 21.7269Z" fill="white"/>
<path d="M206.112 29.6557C206.807 29.6557 207.37 29.0927 207.37 28.3982C207.37 27.7037 206.807 27.1406 206.112 27.1406C205.418 27.1406 204.855 27.7037 204.855 28.3982C204.855 29.0927 205.418 29.6557 206.112 29.6557Z" fill="#2C664C"/>
<path d="M202.564 33.8218C202.875 33.8218 203.127 33.5694 203.127 33.2581C203.127 32.9467 202.875 32.6943 202.564 32.6943C202.252 32.6943 202 32.9467 202 33.2581C202 33.5694 202.252 33.8218 202.564 33.8218Z" fill="white"/>
<path d="M51.9588 28.5709C52.4883 28.5709 52.9175 28.1416 52.9175 27.6121C52.9175 27.0826 52.4883 26.6533 51.9588 26.6533C51.4293 26.6533 51 27.0826 51 27.6121C51 28.1416 51.4293 28.5709 51.9588 28.5709Z" fill="white"/>
<path d="M159.113 34.2604C159.831 35.3585 159.808 39.0286 159.786 40.0776C159.786 40.1093 159.777 40.1404 159.762 40.1681C159.747 40.1959 159.725 40.2194 159.698 40.2368C159.672 40.2542 159.641 40.2648 159.61 40.2678C159.578 40.2707 159.546 40.266 159.517 40.2539C158.547 39.8543 155.174 38.4067 154.455 37.3086C154.255 37.0028 154.117 36.6606 154.049 36.3013C153.981 35.9421 153.984 35.573 154.059 35.2151C154.133 34.8571 154.278 34.5174 154.484 34.2153C154.69 33.9132 154.953 33.6547 155.259 33.4544C155.565 33.2542 155.907 33.1162 156.266 33.0484C156.626 32.9805 156.995 32.9841 157.353 33.0589C157.711 33.1338 158.05 33.2784 158.352 33.4846C158.654 33.6907 158.913 33.9543 159.113 34.2604Z" fill="white"/>
<path d="M156.677 37.0379C157.459 37.0379 158.093 36.404 158.093 35.622C158.093 34.84 157.459 34.2061 156.677 34.2061C155.895 34.2061 155.261 34.84 155.261 35.622C155.261 36.404 155.895 37.0379 156.677 37.0379Z" fill="#2C664C"/>
<path d="M57.7971 20.8285C58.8697 20.8285 59.7392 19.959 59.7392 18.8864C59.7392 17.8138 58.8697 16.9443 57.7971 16.9443C56.7245 16.9443 55.855 17.8138 55.855 18.8864C55.855 19.959 56.7245 20.8285 57.7971 20.8285Z" fill="#2C664C"/>
<path d="M160.474 42.0566C160.825 42.0566 161.109 41.7724 161.109 41.4218C161.109 41.0713 160.825 40.7871 160.474 40.7871C160.124 40.7871 159.839 41.0713 159.839 41.4218C159.839 41.7724 160.124 42.0566 160.474 42.0566Z" fill="white"/>
<path d="M5.11256 19.2604C5.83131 20.3585 5.80834 24.0286 5.78628 25.0776C5.78564 25.1093 5.77728 25.1404 5.76192 25.1681C5.74656 25.1959 5.72467 25.2194 5.69815 25.2368C5.67163 25.2542 5.64127 25.2648 5.60971 25.2678C5.57814 25.2707 5.54633 25.266 5.51703 25.2539C4.54677 24.8543 1.17418 23.4067 0.455427 22.3086C0.254998 22.0028 0.116787 21.6606 0.0486927 21.3013C-0.0194017 20.9421 -0.0160457 20.573 0.0585697 20.2151C0.133185 19.8571 0.277597 19.5174 0.483553 19.2153C0.68951 18.9132 0.952975 18.6547 1.25889 18.4544C1.56481 18.2542 1.90718 18.1162 2.26645 18.0484C2.62572 17.9805 2.99484 17.9841 3.35272 18.0589C3.71059 18.1338 4.05022 18.2784 4.35218 18.4846C4.65414 18.6907 4.91252 18.9543 5.11256 19.2604Z" fill="white"/>
<path d="M2.67715 22.0379C3.45914 22.0379 4.09307 21.404 4.09307 20.622C4.09307 19.84 3.45914 19.2061 2.67715 19.2061C1.89516 19.2061 1.26123 19.84 1.26123 20.622C1.26123 21.404 1.89516 22.0379 2.67715 22.0379Z" fill="#2C664C"/>
<path d="M6.47408 27.0575C6.82462 27.0575 7.1088 26.7734 7.1088 26.4228C7.1088 26.0723 6.82462 25.7881 6.47408 25.7881C6.12353 25.7881 5.83936 26.0723 5.83936 26.4228C5.83936 26.7734 6.12353 27.0575 6.47408 27.0575Z" fill="white"/>
<path d="M48.2565 75.8346C48.7932 77.985 48.0753 80.0029 46.6532 80.3415C45.2312 80.6801 43.6438 79.2114 43.1073 77.0601C42.8807 76.2037 42.8706 75.3059 43.0777 74.442L40.9235 65.3019L45.4012 64.3887L47.0495 73.4961C47.6404 74.1702 48.0543 74.972 48.2565 75.8346Z" fill="#FDADB0"/>
<path d="M29.4833 128.099L29.7592 134.089L29.4829 135.747L30.4499 137.681L38.0476 138.51L38.462 134.918L34.4559 132.846L34.3395 129.461L29.4833 128.099Z" fill="#FDADB0"/>
<path d="M37.4949 137.128L37.0805 137.68L29.1239 135.387C29.1239 135.387 29.4828 138.924 29.4828 139.614C29.4828 140.305 42.6061 140.305 44.5808 140.029C46.5556 139.752 45.9214 137.957 45.9214 137.957L37.7322 134.08L37.4949 137.128Z" fill="#2F2E43"/>
<path d="M9.68888 123.688L8.03309 129.451L7.24084 130.933L7.53805 133.075L14.4709 136.292L16.0129 133.022L12.8807 129.777L14.8455 124.682L9.68888 123.688Z" fill="#FDADB0"/>
<path d="M14.3894 134.806L13.8199 135.197L7.01555 130.479C7.01555 130.479 6.22395 133.944 6.00291 134.598C5.78187 135.252 18.215 139.452 20.1743 139.822C22.1336 140.193 22.1075 138.288 22.1075 138.288L15.5895 131.995L14.3894 134.806Z" fill="#2F2E43"/>
<path d="M30.0188 29.1961L30.3089 33.9075L21.5114 34.3538L24.2357 28.1465L30.0188 29.1961Z" fill="#FDADB0"/>
<path d="M30.5334 33.2021C28.1753 34.2539 24.4036 33.9662 20.1294 33.2021L19.4613 62.8148C19.4613 62.8148 32.8319 65.503 37.4291 60.5429L35.0095 36.3476L30.5334 33.2021Z" fill="#E0E1E2"/>
<path d="M35.9774 61.2695L17.1014 63.1352L7.78625 126.385H14.9239L27.1461 83.0454L28.1139 132.162H34.6466L40.2116 72.0365L35.9774 61.2695Z" fill="#6E66F9"/>
<path d="M22.8129 31.3877L16.4708 35.1408C14.0682 36.5625 12.9358 39.4326 13.7202 42.1118L18.6218 58.8531C18.6218 58.8531 10.64 72.5656 13.2336 73.7754C19.0619 76.4939 27.759 75.832 27.759 75.832L25.8152 43.0015L22.8129 31.3877Z" fill="#9B95FF"/>
<path d="M30.2578 33.0781L37.429 35.8641L39.1227 56.5512L43.8658 73.2165C35.8321 76.149 36.5822 74.7825 36.5822 74.7825L35.2514 46.0262L30.2578 33.0781Z" fill="#9B95FF"/>
<path d="M40.7338 72.8641L40.7092 72.7509L33.3788 38.8469C33.174 37.8996 33.4359 36.95 34.0973 36.2415C34.7587 35.5329 35.6883 35.2066 36.6476 35.3461C37.8308 35.5181 38.778 36.3799 39.0606 37.5417L47.1123 70.6378L40.7338 72.8641Z" fill="#9B95FF"/>
<path d="M26.2014 30.4479C30.1433 30.4479 33.3389 27.2523 33.3389 23.3104C33.3389 19.3684 30.1433 16.1729 26.2014 16.1729C22.2594 16.1729 19.0638 19.3684 19.0638 23.3104C19.0638 27.2523 22.2594 30.4479 26.2014 30.4479Z" fill="#FDADB0"/>
<path d="M29.5972 14.063C31.1694 14.6155 32.069 14.9317 32.893 15.7256C34.285 17.0666 34.5147 18.8586 34.7281 20.5237C34.8951 21.8262 35.111 23.5104 34.3482 25.4346C34.0879 26.0913 32.8252 29.0169 30.4083 29.3867C29.9336 29.4593 28.8193 29.4784 29.1405 29.2412C32.1132 27.0466 33.3818 25.7216 33.2778 22.3393C33.2132 20.2376 30.0018 17.9686 28.095 17.5607C27.2917 17.3888 26.2223 17.5458 25.4554 18.1753C23.8527 19.491 23.9211 24.9317 22.2312 26.069C21.5362 26.5368 21.9993 23.2443 21.5096 23.7782C20.5433 24.8318 21.1631 26.4451 21.3368 27.0595C22.1604 29.9739 23.7132 30.2592 24.5176 32.7479C25.3861 35.4349 24.293 37.9646 24.0338 38.5645C23.5829 39.6081 22.8091 41.399 21.041 42.2582C18.7969 43.3488 17.028 41.9286 15.9846 43.1461C15.4014 43.8268 15.7169 44.5476 14.6635 46.6646C14.3196 47.3557 14.1476 47.7013 13.9954 47.689C13.2751 47.631 12.1089 41.8651 13.9951 36.4953C14.7867 34.2418 15.5622 32.034 17.641 30.3075C18.74 29.3948 19.6618 29.0663 19.9242 28.0004C20.299 26.4776 18.7426 25.8277 18.4306 23.425C18.2172 21.7818 18.0675 19.4317 18.6477 17.9254C19.1956 16.503 19.6712 15.2682 20.916 14.1486C21.215 13.8797 23.6285 12.0518 26.1876 12.0003C27.3657 11.9766 28.2313 13.5829 29.5972 14.063Z" fill="#2F2E43"/>
<path d="M44.679 76.4127C54.3204 76.4127 62.1363 68.5968 62.1363 58.9554C62.1363 49.3139 54.3204 41.498 44.679 41.498C35.0376 41.498 27.2217 49.3139 27.2217 58.9554C27.2217 68.5968 35.0376 76.4127 44.679 76.4127Z" fill="#2C664C"/>
<path d="M40.2618 70.3447C41.3216 66.5219 42.3813 62.6992 43.4411 58.8764C43.6667 58.0626 43.8413 57.1587 44.3577 56.468C44.7569 55.934 45.3849 55.5847 46.0495 55.8042C47.634 56.3278 47.6084 58.6142 47.5803 59.9482C47.5378 61.962 47.0832 63.9711 46.2464 65.804C46.1317 66.0554 46.1747 66.3551 46.4301 66.5045C46.6502 66.6333 47.0152 66.5736 47.1306 66.3209C47.9685 64.4855 48.4665 62.5209 48.5823 60.5051C48.6823 58.7658 48.6898 56.472 47.1823 55.2866C46.4454 54.7072 45.505 54.535 44.6411 54.9355C43.7874 55.3313 43.2661 56.1507 42.9383 56.999C42.5738 57.9424 42.3567 58.9541 42.0868 59.9274L41.2173 63.0641C40.5697 65.4002 39.922 67.7364 39.2744 70.0725C39.0981 70.7085 40.0857 70.9799 40.2618 70.3447Z" fill="white"/>
<path d="M44.8022 65.0212C45.458 62.5598 45.793 60.0145 45.7958 57.4672C45.7965 56.8083 44.7726 56.8073 44.7718 57.4672C44.7692 59.9282 44.4484 62.3709 43.8148 64.7489C43.645 65.3864 44.6325 65.6583 44.8022 65.0212Z" fill="white"/>
<path d="M34.2753 64.9908C34.9615 61.6819 35.7044 58.3625 36.6568 55.1188C37.4292 52.4885 38.7609 49.5079 41.5715 48.5543C42.9674 48.0806 44.4804 48.1569 45.9091 48.4317C47.3258 48.7043 48.7608 49.1099 50.0665 49.7302C51.3026 50.3175 52.4461 51.1269 53.2598 52.2419C54.063 53.3426 54.5632 54.62 54.8328 55.9501C55.4584 59.037 54.722 62.1905 53.8969 65.1657C53.7871 65.5617 53.6749 65.957 53.5625 66.3522C53.382 66.9872 54.3697 67.2583 54.5499 66.6244C55.4617 63.4168 56.4089 60.0659 55.984 56.6994C55.8003 55.2435 55.3919 53.8133 54.6641 52.5319C53.9183 51.2188 52.8423 50.1455 51.5523 49.3653C50.2513 48.5785 48.7866 48.0776 47.3201 47.7017C45.7624 47.3024 44.1413 47.0567 42.5369 47.2798C41.024 47.4902 39.661 48.2075 38.5897 49.2905C37.4922 50.4 36.75 51.7863 36.2024 53.2352C35.5984 54.8332 35.204 56.5118 34.7885 58.1661C34.3493 59.9146 33.9396 61.6705 33.5596 63.4328C33.4673 63.861 33.3769 64.2896 33.2879 64.7186C33.2318 64.9891 33.3668 65.2718 33.6455 65.3484C33.8992 65.4181 34.2189 65.2628 34.2753 64.9908Z" fill="white"/>
<path d="M39.5528 54.4059C40.3513 51.9829 42.9226 50.4828 45.4122 50.649C48.1718 50.8333 50.5636 52.8487 51.5324 55.3847C52.1081 56.8916 52.2771 58.5502 52.0351 60.1447C51.9937 60.4178 52.1039 60.6952 52.3927 60.7745C52.6347 60.841 52.9807 60.692 53.0225 60.4169C53.5062 57.2298 52.6173 53.7571 50.109 51.6019C48.9329 50.5913 47.4924 49.8918 45.9503 49.6824C44.4673 49.481 42.9723 49.7554 41.6594 50.4774C40.2192 51.2693 39.0816 52.5674 38.5654 54.1337C38.3586 54.761 39.3471 55.0299 39.5528 54.4059Z" fill="white"/>
<path d="M37.3741 59.1018C37.1542 61.7286 36.4921 64.326 35.421 66.7351C35.3088 66.9876 35.3477 67.2852 35.6047 67.4356C35.8229 67.5632 36.1923 67.5059 36.3052 67.2519C37.4548 64.6661 38.1619 61.9224 38.3981 59.1018C38.4212 58.8259 38.1462 58.5898 37.8861 58.5898C37.5899 58.5898 37.3973 58.8251 37.3741 59.1018Z" fill="white"/>
<path d="M49.7428 62.0344C49.5228 64.6612 48.8608 67.2586 47.7897 69.6677C47.6774 69.9202 47.7163 70.2178 47.9734 70.3682C48.1915 70.4958 48.561 70.4385 48.6739 70.1845C49.8235 67.5987 50.5306 64.855 50.7667 62.0344C50.7898 61.7585 50.5149 61.5225 50.2547 61.5225C49.9585 61.5225 49.7659 61.7578 49.7428 62.0344Z" fill="white"/>
<path d="M39.9504 59.9963C40.6089 57.3854 41.6998 54.9111 43.1799 52.6617C43.5431 52.1096 42.6568 51.5961 42.2957 52.1449C40.7712 54.4617 39.6412 57.0349 38.963 59.7241C38.8018 60.3633 39.7891 60.6359 39.9504 59.9963Z" fill="white"/>
<path d="M29.9436 55.395C32.1478 55.1631 34.046 56.155 34.1833 57.6103C34.3206 59.0657 32.6451 60.433 30.44 60.6647C29.5604 60.7698 28.67 60.6548 27.8433 60.3294L18.4923 61.1897L18.2115 56.6284L27.4598 56.2646C28.2096 55.7732 29.0613 55.4751 29.9436 55.395Z" fill="#FDADB0"/>
<path d="M18.5508 35.3574C16.2873 35.0386 14.1637 36.5269 13.6932 38.7638C12.0518 46.568 9.10634 63.192 13.7326 63.4696C19.7814 63.8325 25.5883 62.3808 25.5883 62.3808L24.1366 54.0334L19.4185 53.5495L22.1938 40.5683C22.7207 38.1035 21.0467 35.7089 18.5508 35.3574Z" fill="#9B95FF"/>
</svg>
